inDegrees=no
num_controls=7
num_derivatives=13
num_iterations=123
num_multipliers=7
num_parameters=0
num_slacks=7
num_states=26
objective=0.498091
objective_accelerations=0.041221
objective_balance=0.003554
objective_effort=0.038384
objective_height=0.409356
objective_ligament=0.005575
solver_duration=1392.107558
status=Solve_Succeeded
success=true
DataType=double
version=3
OpenSimVersion=4.5
endheader
time	/jointset/ground_pelvis/pelvis_tilt/value	/jointset/ground_pelvis/pelvis_tx/value	/jointset/ground_pelvis/pelvis_ty/value	/jointset/hip_r/hip_flexion_r/value	/jointset/hip_r/hip_adduction_r/value	/jointset/hip_r/hip_rotation_r/value	/jointset/back/lumbar_extension/value	/jointset/patellofemoral_r/patellar_flexion_r/value	/jointset/knee_r/knee_flexion_r/value	/jointset/knee_r/knee_adduction_r/value	/jointset/knee_r/knee_rotation_r/value	/jointset/ankle_r/ankle_angle_r/value	/jointset/subtalar_r/subtalar_angle_r/value	/jointset/ground_pelvis/pelvis_tilt/speed	/jointset/ground_pelvis/pelvis_tx/speed	/jointset/ground_pelvis/pelvis_ty/speed	/jointset/hip_r/hip_flexion_r/speed	/jointset/hip_r/hip_adduction_r/speed	/jointset/hip_r/hip_rotation_r/speed	/jointset/back/lumbar_extension/speed	/jointset/patellofemoral_r/patellar_flexion_r/speed	/jointset/knee_r/knee_flexion_r/speed	/jointset/knee_r/knee_adduction_r/speed	/jointset/knee_r/knee_rotation_r/speed	/jointset/ankle_r/ankle_angle_r/speed	/jointset/subtalar_r/subtalar_angle_r/speed	/forceset/tau_hip_flexion_r	/forceset/tau_hip_adduction_r	/forceset/tau_hip_rotation_r	/forceset/tau_knee_flexion_r	/forceset/tau_ankle_angle_r	/forceset/tau_subtalar_angle_r	/forceset/tau_lumbar_extension	lambda_cid13_p0	lambda_cid14_p0	lambda_cid14_p1	lambda_cid14_p2	lambda_cid14_p3	lambda_cid14_p4	lambda_cid14_p5	/jointset/ground_pelvis/pelvis_tilt/accel	/jointset/ground_pelvis/pelvis_tx/accel	/jointset/ground_pelvis/pelvis_ty/accel	/jointset/hip_r/hip_flexion_r/accel	/jointset/hip_r/hip_adduction_r/accel	/jointset/hip_r/hip_rotation_r/accel	/jointset/back/lumbar_extension/accel	/jointset/patellofemoral_r/patellar_flexion_r/accel	/jointset/knee_r/knee_flexion_r/accel	/jointset/knee_r/knee_adduction_r/accel	/jointset/knee_r/knee_rotation_r/accel	/jointset/ankle_r/ankle_angle_r/accel	/jointset/subtalar_r/subtalar_angle_r/accel	gamma_cid13_p0	gamma_cid14_p0	gamma_cid14_p1	gamma_cid14_p2	gamma_cid14_p3	gamma_cid14_p4	gamma_cid14_p5
0.5	-0.1325663427837065	0.03645114599688176	0.8471712817344315	0.788289957822857	-0.2255786967248127	-0.131119133779612	-0.3212548700873091	0.7479471048332048	0.7479471048331734	0.01792524570004534	0.1745135563187054	0.2676026663163431	0.06390505196791622	-0.3503850241017571	-0.1240251920162262	-0.3968559014955099	1.669294021859754	0.002169568322111776	0.2291880768173011	-0.5986507838470155	1.833519976281808	1.833519976281984	-0.3544983377868065	-0.0001080240722985468	0.6138633735837042	0.1843259678702583	-0.09689738548693222	-0.01926301964174754	0.01105782646568631	-0.3475776056217237	0.07163095423326347	-0.008675237417048082	0.1489851923834219	-28.50759576345744	-18.80584706158949	-3.627204876985911	-2.8833171827178	2.810957064837032	-664.4740699285518	60.2905881533915	0.177929693693898	0.3456688632161471	-0.4316155418580423	-0.9808252322880538	-0.1260002530186354	-0.5747790833067147	1.387882085318345	-1.209510766734775	-1.209510766734701	0.4636086288024057	-0.0725587757952605	-0.5659261769279387	-0.1620389193335026	-3.061889036060466e-08	3.02762516352424e-07	2.443210234878806e-06	2.546495241584786e-06	-4.809936190350472e-07	3.035372941668602e-07	5.036043386191598e-07
0.51	-0.1360608649581957	0.03522831679527346	0.8431820007531178	0.8049317678229263	-0.2255627710256946	-0.1288614500236916	-0.3271711792477133	0.7662192535745058	0.7662192535743061	0.01439930675906009	0.1745124776861615	0.2737123090617373	0.06574076389905598	-0.3484694195925941	-0.1205262630266751	-0.4009117389663019	1.658843406136581	0.00101491407103365	0.2223358940783295	-0.5845388879392709	1.820657049491084	1.820657049491178	-0.3506854038368337	-0.0001061970808573904	0.6079829375162981	0.1827856326243351	-0.1027471684099891	-0.01745434402021675	0.011589753443158	-0.3509872477813961	0.06808187442385549	-0.008060720358761727	0.1542791653656957	-27.40008049116581	-20.12311975016073	-3.721969892329518	-2.718571336071296	3.290431364757175	-668.2786969387698	60.19374150593412	0.20589395501549	0.3540662166484894	-0.3792247330935021	-1.110834856397291	-0.1096856948114061	-0.7422244763063545	1.433667387624776	-1.362585772542051	-1.362585772554436	0.3411989180671112	0.03728212059865887	-0.6115189637426475	-0.153964275209711	-3.056495137426796e-08	2.99116089485679e-07	2.453001863548667e-06	2.484442033724107e-06	-4.805584322123167e-07	2.914669205997365e-07	6.02739021465915e-07
0.52	-0.1395347274624945	0.03404088914352545	0.8391548300204154	0.8214623406429511	-0.2255582894058191	-0.1266726454165838	-0.3329442046402154	0.78435519262044	0.7843551926200698	0.01091170978556946	0.1745115630603268	0.2797606641180384	0.06756028578813889	-0.3462530900639146	-0.1169448820441669	-0.4044338517732448	1.647046585850793	-0.0001192475264040848	0.2154122470547987	-0.5699940302666383	1.806278037208327	1.806278037208338	-0.3468299442879648	-7.522273002197449e-05	0.6016058357650648	0.1810879594588927	-0.1085969513330499	-0.01564566839868776	0.01212168042062038	-0.3543968899410692	0.06453279461444721	-0.007446203300477746	0.1595731383479664	-26.28230461579264	-21.44797837693455	-3.821548735513416	-2.549073938026657	3.790775753665426	-672.1930913751726	60.05859501848751	0.238074697597139	0.3621592618075946	-0.3248706090882134	-1.250066144810963	-0.1219017222905589	-0.5890719402185731	1.474474438295892	-1.512727865141456	-1.512727865141379	0.4721137485816449	-0.06672930391640816	-0.6652593136933422	-0.1935065032373343	-2.932427032635525e-08	2.943443159649999e-07	2.443102162371466e-06	2.41343835753136e-06	-4.767158409675417e-07	2.767879569725074e-07	6.935258881258094e-07
0.53	-0.1429849613930609	0.03288963963014539	0.835095142413616	0.8378682985094806	-0.2255652043454222	-0.124553027289091	-0.3385697319160662	0.8023398392359442	0.8023398392355734	0.007463287811354704	0.174510899941422	0.2857427503484383	0.06936180747641288	-0.3437462169697256	-0.1132954131390294	-0.4074107414516397	1.633926764789589	-0.001268866719783687	0.2085248787094489	-0.5550523291641406	1.790405713508311	1.79040571350847	-0.3428229890488078	-6.423255096863253e-05	0.5947296413160822	0.1791765418709125	-0.1143227607057525	-0.01378838744926292	0.01248583714507952	-0.3578426246277037	0.06105047307316497	-0.006800339920082609	0.1647522591133012	-25.15602874042479	-22.75366841531818	-3.903616974282498	-2.382988485435446	4.296305193382869	-676.1528414455513	59.94858781122914	0.264135064633458	0.3676868893547376	-0.270105111408284	-1.375643328870016	-0.1116902036331266	-0.7364331429284251	1.512882307077708	-1.661314745536558	-1.661314745514431	0.3701344990837955	0.03447542453819871	-0.7111427125039282	-0.1952706879513571	-2.796807358409982e-08	2.873552086905624e-07	2.409975780126802e-06	2.324718367051727e-06	-4.688109109719929e-07	2.613411922624262e-07	7.695180036062234e-07
0.54	-0.1464086983028234	0.0317751540427143	0.8310084845171942	0.8541365175169793	-0.2255836551141136	-0.1225018556172987	-0.3440440693087217	0.8201583965898267	0.8201583965894573	0.004055965007031585	0.1745102391734518	0.2916536059939478	0.07114315272853246	-0.3409536859033923	-0.109592096854375	-0.4098279096977624	1.619498814044592	-0.002426413344021358	0.2017229559146894	-0.5397560536276043	1.773060184884099	1.773060184884405	-0.3386101103096078	-7.475254303574016e-05	0.587359718786971	0.1770526722280123	-0.1200485700784592	-0.01193110649983942	0.01284999386954881	-0.3612883593143385	0.05756815153188256	-0.006154476539689478	0.1699313798786328	-24.02340933935678	-24.06771449598511	-3.989613727355482	-2.21345779740426	4.822759391370259	-680.234906454875	59.80849923406807	0.2952062920259886	0.3729287377109987	-0.2129263226337585	-1.511692081569321	-0.1234872084621723	-0.5719828301005003	1.545389325103607	-1.807368849980781	-1.807368849980776	0.5132984485902603	-0.07103133814049914	-0.7640049297190645	-0.2359969142213256	-2.648407224384821e-08	2.779128810928179e-07	2.351151793296859e-06	2.216397347999368e-06	-4.564114785287792e-07	2.450449455032319e-07	8.291414582072119e-07
